
<svg width="40" height="40" viewBox="0 0 40 40" fill="none" xmlns="http://www.w3.org/2000/svg">
  <rect width="40" height="40" rx="12" fill="#34D399" fill-opacity="0.1"/>
  <path d="M13.3333 20C13.3333 18.1591 14.8258 16.6667 16.6667 16.6667C18.5075 16.6667 20 18.1591 20 20" stroke="#34D399" stroke-width="2" stroke-linecap="round"/>
  <path d="M20 20C20 18.1591 21.4925 16.6667 23.3333 16.6667C25.1742 16.6667 26.6667 18.1591 26.6667 20" stroke="#34D399" stroke-width="2" stroke-linecap="round"/>
  <path d="M10 13.3333C10 11.4924 11.4924 10 13.3333 10H26.6667C28.5076 10 30 11.4924 30 13.3333V26.6667C30 28.5076 28.5076 30 26.6667 30H13.3333C11.4924 30 10 28.5076 10 26.6667V13.3333Z" stroke="#34D399" stroke-width="2"/>
  <path d="M10 23.3333H30" stroke="#34D399" stroke-width="2" stroke-linecap="round"/>
</svg>
